<svg width="20" height="20" fill="none" xmlns="http://www.w3.org/2000/svg"><g filter="url(#filter0_i)"><rect width="20" height="20" rx="5" fill="url(#paint0_linear)"/><path d="M11.646 16.354a.5.5 0 00.708 0l3.182-3.182a.5.5 0 10-.708-.708L12 15.293l-2.828-2.829a.5.5 0 10-.708.708l3.182 3.182zM11.5 4v12h1V4h-1z" fill="url(#paint1_linear)"/><path d="M8.354 4.146a.5.5 0 00-.708 0L4.464 7.328a.5.5 0 10.708.708L8 5.207l2.828 2.829a.5.5 0 10.708-.708L8.354 4.146zM8.5 16.5v-12h-1v12h1z" fill="url(#paint2_linear)"/></g><defs><linearGradient id="paint0_linear" x1="10" y1="0" x2="10" y2="20" gradientUnits="userSpaceOnUse"><stop stop-color="#4B787B"/><stop offset="1" stop-color="#25D5E0" stop-opacity="0"/></linearGradient><linearGradient id="paint1_linear" x1="12" y1="10" x2="11" y2="10" gradientUnits="userSpaceOnUse"><stop stop-color="#fff"/><stop offset=".193" stop-color="#6EA3C1" stop-opacity="0"/></linearGradient><linearGradient id="paint2_linear" x1="8" y1="10.5" x2="9" y2="10.5" gradientUnits="userSpaceOnUse"><stop stop-color="#fff"/><stop offset=".193" stop-color="#6EA3C1" stop-opacity="0"/></linearGradient><filter id="filter0_i" x="0" y="0" width="20" height="24" filterUnits="userSpaceOnUse" color-interpolation-filters="sRGB"><feFlood flood-opacity="0" result="BackgroundImageFix"/><feBlend in="SourceGraphic" in2="BackgroundImageFix" result="shape"/><feColorMatrix in="SourceAlpha" values="0 0 0 0 0 0 0 0 0 0 0 0 0 0 0 0 0 0 127 0" result="hardAlpha"/><feOffset dy="4"/><feGaussianBlur stdDeviation="2"/><feComposite in2="hardAlpha" operator="arithmetic" k2="-1" k3="1"/><feColorMatrix values="0 0 0 0 0 0 0 0 0 0 0 0 0 0 0 0 0 0 0.25 0"/><feBlend in2="shape" result="effect1_innerShadow"/></filter></defs></svg>